# xmcd
#
# Track frame offsets: 
#        150
#        19143
#        33133
#        42860
#        61139
#        82084
#        99789
#        110771
#        126932
#        143807
#        154700
#        174529
#
# Disc length: 2510 seconds
#
# Revision: 0
# Processed by: cddbd v1.5.2PL0 Copyright (c) Steve Scherf et al.
# Submitted via: ExactAudioCopyFreeDBPlugin 1.0
#
DISCID=9509cc0c
DTITLE=Various Artist - Holiday Wishes: Country
DYEAR=2010
DGENRE=Christmas - Country
TTITLE0=Brad Paisley - Santa Looked A Lot Like Daddy
TTITLE1=Brooks and Dunn - Rockin' Little Christmas
TTITLE2=Tammy Wynette - One Happy Christmas
TTITLE3=Montgomery Gentry - Merry Christmas From The Family
TTITLE4=Kenny Chesney - All I Want For Christmas Is A Real Good Tan
TTITLE5=Sara Evans - I'll Be Home For Christmas
TTITLE6=Willie Nelson - Pretty Paper
TTITLE7=Alabama - Christmas In Dixie
TTITLE8=Martina McBride - The Christmas Song (Chestnuts Roasting On An
TTITLE8=Open Fire)
TTITLE9=Johnny Cash - Blue Christmas
TTITLE10=Lonestar - Have Yourself A Merry Little Christmas
TTITLE11=Dolly Parton and Kenny Rogers - White Christmas
EXTD=
EXTT0=
EXTT1=
EXTT2=
EXTT3=
EXTT4=
EXTT5=
EXTT6=
EXTT7=
EXTT8=
EXTT9=
EXTT10=
EXTT11=
PLAYORDER=
